<?xml version="1.0" encoding="UTF-8"?>
<svg xmlns="http://www.w3.org/2000/svg" xmlns:xlink="http://www.w3.org/1999/xlink" viewBox="0 0 30 30" width="30px" height="30px">
<g id="surface1127703">
<path style=" stroke:none;fill-rule:nonzero;fill:rgb(0%,0%,0%);fill-opacity:1;" d="M 22.1875 1.875 C 20.199219 1.875 18.433594 2.867188 17.351562 4.375 L 7.1875 4.375 C 5.300781 4.375 3.75 5.925781 3.75 7.8125 L 3.75 23.4375 C 3.75 25.324219 5.300781 26.875 7.1875 26.875 L 22.8125 26.875 C 24.699219 26.875 26.25 25.324219 26.25 23.4375 L 26.25 12.308594 C 27.203125 11.039062 28.125 9.691406 28.125 7.796875 C 28.125 4.535156 25.453125 1.875 22.1875 1.875 Z M 22.1875 3.75 C 24.445312 3.75 26.25 5.554688 26.25 7.796875 C 26.25 9.183594 25.582031 10.089844 24.578125 11.414062 C 23.785156 12.464844 22.890625 13.867188 22.1875 15.625 C 21.484375 13.867188 20.589844 12.464844 19.796875 11.414062 C 18.792969 10.089844 18.125 9.183594 18.125 7.796875 C 18.125 5.554688 19.929688 3.75 22.1875 3.75 Z M 7.1875 6.25 L 16.464844 6.25 C 16.328125 6.746094 16.25 7.261719 16.25 7.796875 C 16.25 9.371094 16.886719 10.566406 17.644531 11.652344 L 5.648438 23.652344 C 5.636719 23.582031 5.625 23.511719 5.625 23.4375 L 5.625 7.8125 C 5.625 6.9375 6.3125 6.25 7.1875 6.25 Z M 22.1875 6.25 C 21.324219 6.25 20.625 6.949219 20.625 7.8125 C 20.625 8.675781 21.324219 9.375 22.1875 9.375 C 23.050781 9.375 23.75 8.675781 23.75 7.8125 C 23.75 6.949219 23.050781 6.25 22.1875 6.25 Z M 10.320312 7.5 C 8.429688 7.5 6.882812 9.046875 6.882812 10.9375 C 6.882812 12.828125 8.429688 14.375 10.320312 14.375 C 12.082031 14.375 13.542969 13.03125 13.738281 11.320312 C 13.757812 11.144531 13.703125 10.964844 13.582031 10.832031 C 13.464844 10.699219 13.292969 10.625 13.117188 10.625 L 10.632812 10.625 C 10.410156 10.621094 10.199219 10.738281 10.085938 10.933594 C 9.972656 11.128906 9.972656 11.371094 10.085938 11.566406 C 10.199219 11.757812 10.410156 11.878906 10.632812 11.875 L 12.136719 11.875 C 11.773438 12.574219 11.164062 13.125 10.320312 13.125 C 9.105469 13.125 8.132812 12.152344 8.132812 10.9375 C 8.132812 9.722656 9.105469 8.75 10.320312 8.75 C 10.847656 8.75 11.320312 8.933594 11.699219 9.238281 C 11.871094 9.386719 12.109375 9.425781 12.324219 9.347656 C 12.535156 9.269531 12.6875 9.078125 12.722656 8.855469 C 12.757812 8.628906 12.664062 8.40625 12.484375 8.265625 C 11.894531 7.789062 11.140625 7.5 10.320312 7.5 Z M 18.769531 13.179688 C 19.625 14.332031 20.453125 15.589844 20.945312 17.476562 C 20.96875 17.5625 20.960938 17.679688 21.070312 17.980469 C 21.128906 18.128906 21.246094 18.355469 21.472656 18.523438 C 21.699219 18.691406 21.980469 18.75 22.1875 18.75 C 22.394531 18.75 22.675781 18.691406 22.902344 18.523438 C 23.128906 18.355469 23.246094 18.128906 23.304688 17.976562 C 23.414062 17.679688 23.40625 17.566406 23.425781 17.476562 L 23.429688 17.476562 C 23.671875 16.539062 24.003906 15.761719 24.375 15.070312 L 24.375 23.4375 C 24.375 23.511719 24.363281 23.582031 24.351562 23.652344 L 16.324219 15.625 Z M 15 16.949219 L 23.027344 24.976562 C 22.957031 24.988281 22.886719 25 22.8125 25 L 7.1875 25 C 7.113281 25 7.042969 24.988281 6.972656 24.976562 Z M 15 16.949219 "/>
</g>
</svg>
